<?xml version="1.0" standalone="no"?><!-- Generator: Gravit.io --><svg xmlns="http://www.w3.org/2000/svg" xmlns:xlink="http://www.w3.org/1999/xlink" style="isolation:isolate" viewBox="42.375 66 7138.125 892" width="7138.125" height="892"><defs><clipPath id="_clipPath_raDex4XmRdkmSyHKQaQKCsGWknk9hKJ3"><rect x="42.375" y="66" width="7138.125" height="892"/></clipPath></defs><g clip-path="url(#_clipPath_raDex4XmRdkmSyHKQaQKCsGWknk9hKJ3)"><rect x="42.375" y="66" width="7138.125" height="892" style="fill:rgb(0,0,0)" fill-opacity="0"/><g><g><path d="M 488.375 66 L 6734.5 66 C 6980.654 66 7180.5 265.846 7180.5 512 L 7180.5 512 C 7180.5 758.154 6980.654 958 6734.5 958 L 488.375 958 C 242.221 958 42.375 758.154 42.375 512 L 42.375 512 C 42.375 265.846 242.221 66 488.375 66 Z" style="stroke:none;fill:#FAFAFA;stroke-miterlimit:10;"/><path d=" M 6061.095 360.587 L 6171.095 360.587 L 6171.095 830.507 L 6066.375 830.507 L 6066.375 769.787 L 6066.375 769.787 Q 6039.095 803.227 5999.055 819.947 L 5999.055 819.947 L 5999.055 819.947 Q 5959.015 836.667 5910.615 836.667 L 5910.615 836.667 L 5910.615 836.667 Q 5841.975 836.667 5787.855 806.747 L 5787.855 806.747 L 5787.855 806.747 Q 5733.735 776.827 5703.375 722.267 L 5703.375 722.267 L 5703.375 722.267 Q 5673.015 667.707 5673.015 595.547 L 5673.015 595.547 L 5673.015 595.547 Q 5673.015 523.387 5703.375 469.267 L 5703.375 469.267 L 5703.375 469.267 Q 5733.735 415.147 5787.855 385.227 L 5787.855 385.227 L 5787.855 385.227 Q 5841.975 355.307 5910.615 355.307 L 5910.615 355.307 L 5910.615 355.307 Q 5956.375 355.307 5994.655 371.147 L 5994.655 371.147 L 5994.655 371.147 Q 6032.935 386.987 6061.095 417.787 L 6061.095 417.787 L 6061.095 360.587 L 6061.095 360.587 Z  M 5922.935 742.507 L 5922.935 742.507 Q 5983.655 742.507 6023.255 702.027 L 6023.255 702.027 L 6023.255 702.027 Q 6062.855 661.547 6062.855 595.547 L 6062.855 595.547 L 6062.855 595.547 Q 6062.855 529.547 6023.255 489.067 L 6023.255 489.067 L 6023.255 489.067 Q 5983.655 448.587 5922.935 448.587 L 5922.935 448.587 L 5922.935 448.587 Q 5862.215 448.587 5823.055 489.067 L 5823.055 489.067 L 5823.055 489.067 Q 5783.895 529.547 5783.895 595.547 L 5783.895 595.547 L 5783.895 595.547 Q 5783.895 661.547 5823.055 702.027 L 5823.055 702.027 L 5823.055 702.027 Q 5862.215 742.507 5922.935 742.507 L 5922.935 742.507 L 5922.935 742.507 Z  M 5580.935 836.667 L 5580.935 836.667 Q 5507.895 836.667 5466.975 796.627 L 5466.975 796.627 L 5466.975 796.627 Q 5426.055 756.587 5426.055 683.547 L 5426.055 683.547 L 5426.055 177.547 L 5536.055 177.547 L 5536.055 675.627 L 5536.055 675.627 Q 5536.055 746.027 5602.055 746.027 L 5602.055 746.027 L 5602.055 746.027 Q 5624.055 746.027 5641.655 737.227 L 5641.655 737.227 L 5646.935 825.227 L 5646.935 825.227 Q 5616.135 836.667 5580.935 836.667 L 5580.935 836.667 L 5580.935 836.667 Z  M 4605.415 306.027 L 4605.415 306.027 Q 4526.215 306.027 4485.735 341.227 L 4485.735 341.227 L 4485.735 341.227 Q 4445.255 376.427 4445.255 445.067 L 4445.255 445.067 L 4445.255 497.867 L 4713.655 497.867 L 4713.655 594.667 L 4445.255 594.667 L 4445.255 830.507 L 4330.855 830.507 L 4330.855 445.067 L 4330.855 445.067 Q 4330.855 333.307 4402.575 269.507 L 4402.575 269.507 L 4402.575 269.507 Q 4474.295 205.707 4600.135 205.707 L 4600.135 205.707 L 4600.135 205.707 Q 4652.935 205.707 4698.695 217.147 L 4698.695 217.147 L 4698.695 217.147 Q 4744.455 228.587 4778.775 250.587 L 4778.775 250.587 L 4742.695 343.867 L 4742.695 343.867 Q 4688.135 306.027 4605.415 306.027 L 4605.415 306.027 L 4605.415 306.027 Z  M 5191.735 360.587 L 5301.735 360.587 L 5301.735 830.507 L 5197.015 830.507 L 5197.015 769.787 L 5197.015 769.787 Q 5169.735 803.227 5129.695 819.947 L 5129.695 819.947 L 5129.695 819.947 Q 5089.655 836.667 5041.255 836.667 L 5041.255 836.667 L 5041.255 836.667 Q 4972.615 836.667 4918.495 806.747 L 4918.495 806.747 L 4918.495 806.747 Q 4864.375 776.827 4834.015 722.267 L 4834.015 722.267 L 4834.015 722.267 Q 4803.655 667.707 4803.655 595.547 L 4803.655 595.547 L 4803.655 595.547 Q 4803.655 523.387 4834.015 469.267 L 4834.015 469.267 L 4834.015 469.267 Q 4864.375 415.147 4918.495 385.227 L 4918.495 385.227 L 4918.495 385.227 Q 4972.615 355.307 5041.255 355.307 L 5041.255 355.307 L 5041.255 355.307 Q 5087.015 355.307 5125.295 371.147 L 5125.295 371.147 L 5125.295 371.147 Q 5163.575 386.987 5191.735 417.787 L 5191.735 417.787 L 5191.735 360.587 L 5191.735 360.587 Z  M 5053.575 742.507 L 5053.575 742.507 Q 5114.295 742.507 5153.895 702.027 L 5153.895 702.027 L 5153.895 702.027 Q 5193.495 661.547 5193.495 595.547 L 5193.495 595.547 L 5193.495 595.547 Q 5193.495 529.547 5153.895 489.067 L 5153.895 489.067 L 5153.895 489.067 Q 5114.295 448.587 5053.575 448.587 L 5053.575 448.587 L 5053.575 448.587 Q 4992.855 448.587 4953.695 489.067 L 4953.695 489.067 L 4953.695 489.067 Q 4914.535 529.547 4914.535 595.547 L 4914.535 595.547 L 4914.535 595.547 Q 4914.535 661.547 4953.695 702.027 L 4953.695 702.027 L 4953.695 702.027 Q 4992.855 742.507 5053.575 742.507 L 5053.575 742.507 L 5053.575 742.507 Z  M 3341.895 177.547 L 3451.895 177.547 L 3451.895 830.507 L 3346.295 830.507 L 3346.295 769.787 L 3346.295 769.787 Q 3319.015 803.227 3278.975 819.947 L 3278.975 819.947 L 3278.975 819.947 Q 3238.935 836.667 3190.535 836.667 L 3190.535 836.667 L 3190.535 836.667 Q 3122.775 836.667 3068.655 806.747 L 3068.655 806.747 L 3068.655 806.747 Q 3014.535 776.827 2983.735 721.827 L 2983.735 721.827 L 2983.735 721.827 Q 2952.935 666.827 2952.935 595.547 L 2952.935 595.547 L 2952.935 595.547 Q 2952.935 524.267 2983.735 469.707 L 2983.735 469.707 L 2983.735 469.707 Q 3014.535 415.147 3068.655 385.227 L 3068.655 385.227 L 3068.655 385.227 Q 3122.775 355.307 3190.535 355.307 L 3190.535 355.307 L 3190.535 355.307 Q 3237.175 355.307 3275.895 371.147 L 3275.895 371.147 L 3275.895 371.147 Q 3314.615 386.987 3341.895 418.667 L 3341.895 418.667 L 3341.895 177.547 L 3341.895 177.547 Z  M 3203.735 742.507 L 3203.735 742.507 Q 3243.335 742.507 3275.015 724.467 L 3275.015 724.467 L 3275.015 724.467 Q 3306.695 706.427 3325.175 672.987 L 3325.175 672.987 L 3325.175 672.987 Q 3343.655 639.547 3343.655 595.547 L 3343.655 595.547 L 3343.655 595.547 Q 3343.655 551.547 3325.175 518.107 L 3325.175 518.107 L 3325.175 518.107 Q 3306.695 484.667 3275.015 466.627 L 3275.015 466.627 L 3275.015 466.627 Q 3243.335 448.587 3203.735 448.587 L 3203.735 448.587 L 3203.735 448.587 Q 3164.135 448.587 3132.455 466.627 L 3132.455 466.627 L 3132.455 466.627 Q 3100.775 484.667 3082.295 518.107 L 3082.295 518.107 L 3082.295 518.107 Q 3063.815 551.547 3063.815 595.547 L 3063.815 595.547 L 3063.815 595.547 Q 3063.815 639.547 3082.295 672.987 L 3082.295 672.987 L 3082.295 672.987 Q 3100.775 706.427 3132.455 724.467 L 3132.455 724.467 L 3132.455 724.467 Q 3164.135 742.507 3203.735 742.507 L 3203.735 742.507 L 3203.735 742.507 Z  M 3789.735 743.387 L 3789.735 743.387 Q 3866.295 743.387 3917.335 692.347 L 3917.335 692.347 L 3975.415 760.107 L 3975.415 760.107 Q 3944.615 797.947 3896.215 817.307 L 3896.215 817.307 L 3896.215 817.307 Q 3847.815 836.667 3787.095 836.667 L 3787.095 836.667 L 3787.095 836.667 Q 3709.655 836.667 3650.695 805.867 L 3650.695 805.867 L 3650.695 805.867 Q 3591.735 775.067 3559.615 720.067 L 3559.615 720.067 L 3559.615 720.067 Q 3527.495 665.067 3527.495 595.547 L 3527.495 595.547 L 3527.495 595.547 Q 3527.495 526.907 3558.735 471.907 L 3558.735 471.907 L 3558.735 471.907 Q 3589.975 416.907 3644.975 386.107 L 3644.975 386.107 L 3644.975 386.107 Q 3699.975 355.307 3769.495 355.307 L 3769.495 355.307 L 3769.495 355.307 Q 3835.495 355.307 3889.615 383.907 L 3889.615 383.907 L 3889.615 383.907 Q 3943.735 412.507 3975.415 465.747 L 3975.415 465.747 L 3975.415 465.747 Q 4007.095 518.987 4007.095 590.267 L 4007.095 590.267 L 3647.175 660.667 L 3647.175 660.667 Q 3663.895 701.147 3700.855 722.267 L 3700.855 722.267 L 3700.855 722.267 Q 3737.815 743.387 3789.735 743.387 L 3789.735 743.387 L 3789.735 743.387 Z  M 3769.495 443.307 L 3769.495 443.307 Q 3708.775 443.307 3671.375 482.907 L 3671.375 482.907 L 3671.375 482.907 Q 3633.975 522.507 3633.975 589.387 L 3633.975 589.387 L 3633.975 590.267 L 3899.735 539.227 L 3899.735 539.227 Q 3888.295 496.107 3853.535 469.707 L 3853.535 469.707 L 3853.535 469.707 Q 3818.775 443.307 3769.495 443.307 L 3769.495 443.307 L 3769.495 443.307 Z  M 2425.815 743.387 L 2425.815 743.387 Q 2502.375 743.387 2553.415 692.347 L 2553.415 692.347 L 2611.495 760.107 L 2611.495 760.107 Q 2580.695 797.947 2532.295 817.307 L 2532.295 817.307 L 2532.295 817.307 Q 2483.895 836.667 2423.175 836.667 L 2423.175 836.667 L 2423.175 836.667 Q 2345.735 836.667 2286.775 805.867 L 2286.775 805.867 L 2286.775 805.867 Q 2227.815 775.067 2195.695 720.067 L 2195.695 720.067 L 2195.695 720.067 Q 2163.575 665.067 2163.575 595.547 L 2163.575 595.547 L 2163.575 595.547 Q 2163.575 526.907 2194.815 471.907 L 2194.815 471.907 L 2194.815 471.907 Q 2226.055 416.907 2281.055 386.107 L 2281.055 386.107 L 2281.055 386.107 Q 2336.055 355.307 2405.575 355.307 L 2405.575 355.307 L 2405.575 355.307 Q 2471.575 355.307 2525.695 383.907 L 2525.695 383.907 L 2525.695 383.907 Q 2579.815 412.507 2611.495 465.747 L 2611.495 465.747 L 2611.495 465.747 Q 2643.175 518.987 2643.175 590.267 L 2643.175 590.267 L 2283.255 660.667 L 2283.255 660.667 Q 2299.975 701.147 2336.935 722.267 L 2336.935 722.267 L 2336.935 722.267 Q 2373.895 743.387 2425.815 743.387 L 2425.815 743.387 L 2425.815 743.387 Z  M 2405.575 443.307 L 2405.575 443.307 Q 2344.855 443.307 2307.455 482.907 L 2307.455 482.907 L 2307.455 482.907 Q 2270.055 522.507 2270.055 589.387 L 2270.055 589.387 L 2270.055 590.267 L 2535.815 539.227 L 2535.815 539.227 Q 2524.375 496.107 2489.615 469.707 L 2489.615 469.707 L 2489.615 469.707 Q 2454.855 443.307 2405.575 443.307 L 2405.575 443.307 L 2405.575 443.307 Z  M 1499.335 360.587 L 1609.335 360.587 L 1609.335 830.507 L 1504.615 830.507 L 1504.615 769.787 L 1504.615 769.787 Q 1477.335 803.227 1437.295 819.947 L 1437.295 819.947 L 1437.295 819.947 Q 1397.255 836.667 1348.855 836.667 L 1348.855 836.667 L 1348.855 836.667 Q 1280.215 836.667 1226.095 806.747 L 1226.095 806.747 L 1226.095 806.747 Q 1171.975 776.827 1141.615 722.267 L 1141.615 722.267 L 1141.615 722.267 Q 1111.255 667.707 1111.255 595.547 L 1111.255 595.547 L 1111.255 595.547 Q 1111.255 523.387 1141.615 469.267 L 1141.615 469.267 L 1141.615 469.267 Q 1171.975 415.147 1226.095 385.227 L 1226.095 385.227 L 1226.095 385.227 Q 1280.215 355.307 1348.855 355.307 L 1348.855 355.307 L 1348.855 355.307 Q 1394.615 355.307 1432.895 371.147 L 1432.895 371.147 L 1432.895 371.147 Q 1471.175 386.987 1499.335 417.787 L 1499.335 417.787 L 1499.335 360.587 L 1499.335 360.587 Z  M 1361.175 742.507 L 1361.175 742.507 Q 1421.895 742.507 1461.495 702.027 L 1461.495 702.027 L 1461.495 702.027 Q 1501.095 661.547 1501.095 595.547 L 1501.095 595.547 L 1501.095 595.547 Q 1501.095 529.547 1461.495 489.067 L 1461.495 489.067 L 1461.495 489.067 Q 1421.895 448.587 1361.175 448.587 L 1361.175 448.587 L 1361.175 448.587 Q 1300.455 448.587 1261.295 489.067 L 1261.295 489.067 L 1261.295 489.067 Q 1222.135 529.547 1222.135 595.547 L 1222.135 595.547 L 1222.135 595.547 Q 1222.135 661.547 1261.295 702.027 L 1261.295 702.027 L 1261.295 702.027 Q 1300.455 742.507 1361.175 742.507 L 1361.175 742.507 L 1361.175 742.507 Z  M 2058.055 360.587 L 2163.655 360.587 L 1962.135 830.507 L 1848.615 830.507 L 1647.095 360.587 L 1761.495 360.587 L 1907.575 709.067 L 2058.055 360.587 L 2058.055 360.587 Z  M 510.215 839.307 L 510.215 839.307 Q 416.935 839.307 341.695 798.387 L 341.695 798.387 L 341.695 798.387 Q 266.455 757.467 223.775 685.307 L 223.775 685.307 L 223.775 685.307 Q 181.095 613.147 181.095 522.507 L 181.095 522.507 L 181.095 522.507 Q 181.095 431.867 224.215 359.707 L 224.215 359.707 L 224.215 359.707 Q 267.335 287.547 342.575 246.627 L 342.575 246.627 L 342.575 246.627 Q 417.815 205.707 511.095 205.707 L 511.095 205.707 L 511.095 205.707 Q 586.775 205.707 649.255 232.107 L 649.255 232.107 L 649.255 232.107 Q 711.735 258.507 754.855 308.667 L 754.855 308.667 L 680.935 378.187 L 680.935 378.187 Q 614.055 306.027 516.375 306.027 L 516.375 306.027 L 516.375 306.027 Q 453.015 306.027 402.855 333.747 L 402.855 333.747 L 402.855 333.747 Q 352.695 361.467 324.535 410.747 L 324.535 410.747 L 324.535 410.747 Q 296.375 460.027 296.375 522.507 L 296.375 522.507 L 296.375 522.507 Q 296.375 584.987 324.535 634.267 L 324.535 634.267 L 324.535 634.267 Q 352.695 683.547 402.855 711.267 L 402.855 711.267 L 402.855 711.267 Q 453.015 738.987 516.375 738.987 L 516.375 738.987 L 516.375 738.987 Q 614.055 738.987 680.935 665.947 L 680.935 665.947 L 754.855 736.347 L 754.855 736.347 Q 711.735 786.507 648.815 812.907 L 648.815 812.907 L 648.815 812.907 Q 585.895 839.307 510.215 839.307 L 510.215 839.307 L 510.215 839.307 Z  M 1009.175 836.667 L 1009.175 836.667 Q 936.135 836.667 895.215 796.627 L 895.215 796.627 L 895.215 796.627 Q 854.295 756.587 854.295 683.547 L 854.295 683.547 L 854.295 177.547 L 964.295 177.547 L 964.295 675.627 L 964.295 675.627 Q 964.295 746.027 1030.295 746.027 L 1030.295 746.027 L 1030.295 746.027 Q 1052.295 746.027 1069.895 737.227 L 1069.895 737.227 L 1075.175 825.227 L 1075.175 825.227 Q 1044.375 836.667 1009.175 836.667 L 1009.175 836.667 L 1009.175 836.667 Z " fill-rule="evenodd" fill="rgb(13,71,161)"/></g><g><path d=" M 6489.703 832.131 C 6504.54 857.15 6586.548 932.189 6837.036 744.464 C 6984.703 633.798 7061.261 436.562 7008.703 313.131 C 6964.703 209.798 6832.716 137.879 6700.953 159.798 C 6568.703 181.798 6437.703 372.798 6544.036 478.798 C 6593.709 528.315 6611.287 436.54 6594.203 410.298 C 6545.703 335.798 6596.203 265.798 6627.703 229.298 C 6670.366 179.862 6749.203 164.298 6814.036 209.798 C 6853.503 237.496 6872.349 276.087 6889.036 320.464 C 6917.619 396.478 6903.922 469.06 6879.036 545.131 C 6849.703 634.798 6779.703 706.798 6708.453 762.798 C 6673.739 790.081 6544.968 875.994 6500.37 786.798 C 6493.036 772.131 6455.703 774.798 6489.703 832.131 Z " fill="rgb(23,23,23)"/><path d=" M 6691.953 465.048 C 6716.943 430.419 6723.453 375.423 6684.828 333.423 C 6663.407 310.13 6576.703 362.298 6603.703 395.464 C 6625.926 422.763 6611.677 459.079 6610.203 474.048 C 6605.328 523.548 6665.703 501.423 6691.953 465.048 Z " fill="rgb(13,71,161)"/><circle vector-effect="non-scaling-stroke" cx="6976.789628428293" cy="722.6935350664014" r="48.48484848484895" fill="rgb(245,0,87)"/><circle vector-effect="non-scaling-stroke" cx="6872.187731640757" cy="819.6632320360987" r="48.484848484848044" fill="rgb(13,71,161)"/></g></g></g></svg>